<svg width="246" height="56" viewBox="0 0 246 56" fill="none" xmlns="http://www.w3.org/2000/svg">
<g clip-path="url(#clip0_207_9647)">
<path d="M23.5789 0C23.5789 0 41.2632 10.2804 41.2632 24.3178C41.2632 29.0079 39.4 33.5059 36.0836 36.8224C32.7671 40.1388 28.2691 42.002 23.5789 42.002C18.8888 42.002 14.3908 40.1388 11.0743 36.8224C7.75789 33.5059 5.89474 29.0079 5.89474 24.3178C5.89474 10.3905 23.5789 0 23.5789 0C23.5789 0 0 13.8487 0 32.4211C0 38.6746 2.4842 44.672 6.90611 49.0939C11.328 53.5158 17.3254 56 23.5789 56C29.8325 56 35.8299 53.5158 40.2518 49.0939C44.6737 44.672 47.1579 38.6746 47.1579 32.4211C47.1579 13.7072 23.5789 0 23.5789 0Z" fill="#692BBB"/>
<path d="M5.89474 24.3178C5.89474 29.0079 7.7579 33.5059 11.0743 36.8224C14.3908 40.1388 18.8888 42.002 23.579 42.002C20.4522 42.002 17.4535 40.7599 15.2425 38.5489C13.0316 36.338 11.7895 33.3393 11.7895 30.2125C11.7895 20.9224 23.579 13.998 23.579 13.998C23.579 13.998 35.3684 20.8516 35.3684 30.2125C35.3684 33.3393 34.1263 36.338 31.9154 38.5489C29.7044 40.7599 26.7057 42.002 23.579 42.002C28.2691 42.002 32.7671 40.1388 36.0836 36.8224C39.4 33.5059 41.2632 29.0079 41.2632 24.3178C41.2632 10.2804 23.579 0 23.579 0C23.579 0 5.89474 10.3905 5.89474 24.3178Z" fill="#FF7755"/>
<path d="M69.8015 42.1906V19.1226H60.425V13.1414H87.1478V19.1226H77.7162V42.1906H69.8015Z" fill="#692BBB"/>
<path d="M82.1727 31.8158C82.1076 30.3228 82.3582 28.8329 82.9081 27.4434C83.4579 26.0539 84.2947 24.796 85.3637 23.7518C86.4852 22.7177 87.7999 21.9153 89.2322 21.3906C90.6646 20.866 92.1866 20.6293 93.7106 20.6944C96.7929 20.5667 99.8002 21.6661 102.073 23.7518C103.153 24.7905 104.001 26.0462 104.56 27.4361C105.12 28.826 105.378 30.3186 105.319 31.8158C105.385 33.3083 105.133 34.7977 104.582 36.1862C104.031 37.5747 103.192 38.8308 102.12 39.8719C99.9931 41.8892 97.2003 42.8979 93.7421 42.8979C92.2153 42.9543 90.6926 42.7053 89.2633 42.1655C87.834 41.6256 86.5269 40.8058 85.4187 39.754C84.3546 38.7299 83.5162 37.4947 82.9572 36.1277C82.3982 34.7607 82.131 33.292 82.1727 31.8158ZM97.6483 31.8158C97.7586 30.2876 97.4199 28.7604 96.6737 27.4222C96.3636 26.9447 95.9346 26.5559 95.4289 26.2941C94.9232 26.0324 94.3582 25.9065 93.7892 25.9289C91.1693 25.9289 89.8594 27.8912 89.8594 31.8158C89.8594 35.7404 91.1693 37.6922 93.7892 37.6712C96.3672 37.6712 97.6535 35.7194 97.6483 31.8158Z" fill="#692BBB"/>
<path d="M108.188 42.1905V21.4017H115.262V26.5498C116.509 22.7614 118.93 20.8673 122.524 20.8673C123.011 20.8563 123.499 20.8958 123.978 20.9851V28.0038C123.098 27.8753 122.211 27.8045 121.322 27.7916C119.278 27.7916 117.785 28.2946 116.865 29.2849C115.946 30.2753 115.537 31.9179 115.537 34.1815V42.1905H108.188Z" fill="#692BBB"/>
<path d="M124.968 31.816C124.913 30.3258 125.172 28.8406 125.73 27.4577C126.288 26.0747 127.132 24.8253 128.207 23.7913C129.304 22.7589 130.594 21.9537 132.004 21.4223C133.413 20.8908 134.914 20.6435 136.42 20.6946C138.824 20.6261 141.195 21.2774 143.226 22.5651C145.029 23.711 146.367 25.4604 146.999 27.501L140.2 29.4974C139.564 27.0923 138.243 25.8819 136.271 25.8819C135.682 25.8636 135.098 25.9928 134.573 26.2577C134.047 26.5227 133.596 26.915 133.26 27.3988C132.451 28.6952 132.066 30.2119 132.16 31.7374C132.074 33.2724 132.473 34.7955 133.3 36.0916C133.63 36.5841 134.079 36.986 134.605 37.2606C135.131 37.5351 135.717 37.6737 136.31 37.6635C138.306 37.6635 139.658 36.3903 140.381 33.8437L147.306 35.5493C146.671 37.7595 145.28 39.6764 143.376 40.9646C141.299 42.2942 138.869 42.9654 136.404 42.8902C134.894 42.956 133.385 42.7203 131.967 42.1967C130.549 41.6731 129.249 40.8722 128.144 39.8407C127.085 38.7975 126.256 37.545 125.71 36.1633C125.163 34.7815 124.91 33.3008 124.968 31.816Z" fill="#692BBB"/>
<path d="M149.978 42.1906V13.1099H157.114V24.64C157.772 23.4878 158.707 22.5179 159.834 21.8184C161.088 21.0498 162.537 20.6595 164.007 20.6944C164.938 20.6349 165.87 20.7807 166.738 21.1216C167.606 21.4626 168.388 21.9902 169.03 22.6672C170.193 23.9824 170.774 25.8425 170.774 28.2475V42.1906H163.426V29.6151C163.477 28.7285 163.197 27.8544 162.64 27.1629C162.377 26.8927 162.059 26.6826 161.708 26.5469C161.357 26.4113 160.98 26.3533 160.604 26.377C160.065 26.3271 159.524 26.4445 159.055 26.7131C158.585 26.9817 158.209 27.3885 157.979 27.8781C157.505 29.0201 157.28 30.2499 157.319 31.4857V42.1906H149.978Z" fill="#692BBB"/>
<path d="M174.005 31.7766C174.005 28.4598 174.822 25.7849 176.457 23.7519C177.687 22.2634 179.392 21.2428 181.284 20.8608C183.177 20.4788 185.144 20.7586 186.855 21.6534C187.937 22.2316 188.855 23.0721 189.528 24.0977V13.1414H196.751V42.2221H189.677V39.4555C188.975 40.487 188.034 41.3336 186.934 41.9234C185.213 42.8266 183.235 43.1133 181.329 42.7358C179.423 42.3582 177.703 41.3393 176.457 39.8484C174.822 37.8154 174.005 35.1248 174.005 31.7766ZM189.724 31.7766C189.827 30.2077 189.448 28.6448 188.639 27.2966C188.314 26.8075 187.868 26.4098 187.346 26.1416C186.823 25.8733 186.24 25.7433 185.653 25.764C182.918 25.764 181.547 27.7682 181.542 31.7766C181.429 33.3613 181.808 34.9423 182.627 36.3037C182.966 36.7856 183.421 37.1747 183.95 37.4355C184.478 37.6964 185.064 37.8207 185.653 37.7971C186.244 37.8151 186.83 37.6798 187.353 37.4043C187.876 37.1288 188.32 36.7226 188.639 36.2251C189.446 34.8869 189.829 33.3364 189.74 31.7766H189.724Z" fill="#692BBB"/>
<path d="M215.59 21.4018H222.813L214.568 44.3912C214.057 46.129 213.082 47.6943 211.747 48.9184C210.329 49.9237 208.609 50.412 206.874 50.3017H200.421V44.7999H206.111C206.645 44.8362 207.172 44.6644 207.581 44.3205C208.01 43.8579 208.318 43.2963 208.477 42.6857L208.768 41.8133L198.433 21.3782H206.111L208.847 27.603C209.931 30.0945 210.851 32.1459 211.629 33.7493C211.794 33.3327 212.085 32.4446 212.501 31.0927L213.704 27.3987L215.59 21.4018Z" fill="#692BBB"/>
<path d="M225.179 42.1905V21.4017H232.253V24.6399C232.915 23.481 233.862 22.51 235.004 21.8183C236.222 21.0611 237.633 20.6709 239.067 20.6944C241.336 20.6944 243.057 21.352 244.231 22.6671C245.404 23.9823 245.994 25.8424 245.999 28.2475V42.1905H238.698V29.6151C238.698 27.4301 237.754 26.3376 235.868 26.3376C235.315 26.2761 234.756 26.3913 234.271 26.6665C233.787 26.9418 233.403 27.3631 233.172 27.8702C232.698 29.0122 232.473 30.242 232.512 31.4778V42.1905H225.179Z" fill="#692BBB"/>
</g>
<defs>
<clipPath id="clip0_207_9647">
<rect width="245.968" height="56" fill="white"/>
</clipPath>
</defs>
</svg>
